<?xml version="1.0" standalone="no"?>
<!DOCTYPE svg PUBLIC "-//W3C//DTD SVG 20010904//EN"
 "http://www.w3.org/TR/2001/REC-SVG-20010904/DTD/svg10.dtd">
<svg version="1.0" xmlns="http://www.w3.org/2000/svg"
 width="400.000000pt" height="400.000000pt" viewBox="0 0 400.000000 400.000000"
 preserveAspectRatio="xMidYMid meet">
<metadata>
Created by potrace 1.14, written by Peter Selinger 2001-2017
</metadata>
<g transform="translate(0.000000,400.000000) scale(0.100000,-0.100000)"
fill="#000000" stroke="none">
<path d="M1877 3994 c-2 -2 -30 -6 -63 -8 -78 -7 -146 -15 -163 -22 -8 -2 -30
-7 -50 -10 -118 -20 -329 -92 -476 -163 -480 -234 -843 -649 -1015 -1162 -31
-94 -64 -222 -74 -289 -10 -75 -20 -166 -19 -182 0 -10 -3 -18 -6 -18 -8 0 -6
-255 3 -320 9 -72 16 -123 23 -155 3 -16 7 -39 9 -50 18 -133 113 -401 196
-555 46 -84 165 -265 206 -313 238 -276 469 -452 762 -578 353 -152 759 -201
1115 -135 127 24 136 26 214 47 513 143 964 507 1217 984 38 70 111 234 119
265 0 3 11 35 23 71 12 36 24 74 26 85 3 10 11 47 19 82 9 34 16 65 16 67 1 3
1 6 2 8 1 1 2 13 3 27 2 14 7 54 11 90 5 36 9 73 8 83 0 9 2 17 6 17 7 0 5
166 -3 250 -12 127 -16 166 -21 190 -3 14 -7 41 -10 60 -4 19 -11 55 -16 80
-6 25 -13 56 -15 70 -3 14 -21 72 -40 130 -143 425 -458 821 -844 1061 -213
132 -490 232 -740 268 -41 6 -95 13 -120 17 -48 7 -297 13 -303 8z m333 -77
c14 -2 50 -8 80 -11 103 -13 331 -75 352 -95 4 -4 -9 -7 -30 -7 -135 -2 -310
-43 -421 -98 -192 -95 -323 -229 -432 -441 -29 -55 -53 -101 -54 -103 -5 -6
-128 26 -134 35 -14 22 -61 36 -175 53 -67 10 -123 17 -126 15 -3 -2 -27 -6
-55 -9 -59 -8 -109 -15 -149 -22 -68 -11 -214 -69 -261 -104 -27 -20 -88 -59
-135 -85 -165 -94 -240 -147 -335 -239 -55 -52 -96 -79 -105 -70 -12 12 89
213 163 324 185 280 433 502 727 654 144 74 352 149 470 171 46 8 88 16 107
19 12 3 53 8 90 11 37 4 69 9 71 10 5 5 322 -3 352 -8z m1313 -744 c311 -409
450 -928 381 -1423 -3 -25 -8 -57 -9 -72 -10 -78 -27 -110 -88 -170 -113 -110
-451 -315 -631 -383 -63 -24 -259 -77 -336 -91 -54 -9 -257 -12 -303 -3 -23 4
-60 10 -82 13 -22 4 -47 8 -55 11 -8 2 -31 6 -50 9 -91 14 -211 68 -340 155
-47 31 -107 70 -135 85 -27 16 -58 38 -68 50 -56 66 -169 248 -229 369 -74
148 -98 221 -91 277 8 66 44 193 68 239 38 76 53 89 115 94 30 3 60 6 65 7 45
10 64 -20 41 -65 -8 -15 -12 -33 -9 -41 8 -22 65 -35 114 -26 51 10 54 8 184
-117 45 -43 71 -60 100 -65 22 -4 69 -18 105 -31 146 -52 218 -65 355 -60 460
15 824 339 900 800 17 108 0 320 -34 408 -6 15 -8 27 -5 27 2 0 -2 14 -11 30
-25 49 1 34 48 -27z m-2147 4 c16 -4 49 -9 73 -12 24 -4 59 -18 76 -31 19 -14
51 -27 75 -29 23 -2 72 -21 109 -41 36 -21 85 -47 109 -58 37 -18 42 -24 37
-46 -10 -41 -8 -84 5 -88 6 -2 23 -14 38 -27 25 -21 25 -24 10 -47 -13 -20
-14 -29 -3 -54 24 -56 46 -66 145 -69 81 -2 148 -17 151 -34 1 -3 2 -19 4 -36
1 -16 3 -33 4 -37 0 -4 28 -21 61 -39 l60 -32 -17 -26 c-32 -49 -43 -78 -45
-120 -1 -35 4 -48 29 -73 l31 -31 -41 -21 c-38 -19 -43 -26 -48 -66 -3 -25 -7
-42 -7 -38 -1 3 -18 2 -37 -3 -49 -14 -56 -6 -40 41 13 38 12 42 -17 97 -38
72 -54 90 -98 113 -54 27 -84 17 -122 -39 -13 -19 -27 -34 -32 -34 -6 1 -18
23 -29 50 -10 26 -27 58 -39 69 -28 32 -87 44 -131 29 -42 -14 -54 -9 -32 15
21 24 27 95 11 135 -12 28 -19 33 -42 30 -42 -4 -54 4 -54 36 0 34 -23 57 -82
80 -40 15 -44 20 -56 70 -23 92 -81 129 -173 110 -22 -4 -59 -59 -69 -104 -7
-29 -15 -56 -17 -60 -3 -5 -25 10 -49 34 -39 38 -48 43 -95 43 -43 1 -54 -3
-74 -26 -13 -15 -27 -47 -30 -72 l-7 -44 -58 -6 c-31 -4 -65 -12 -75 -20 -13
-9 -27 -10 -56 -2 -31 8 -45 7 -73 -7 -44 -21 -64 -58 -69 -132 -5 -70 13
-108 74 -156 46 -36 105 -44 176 -23 22 7 43 10 46 8 3 -3 -2 -19 -10 -35 -20
-40 -19 -96 2 -119 27 -30 79 -50 129 -50 42 0 47 -2 60 -34 18 -43 57 -58
119 -44 29 6 52 6 63 0 15 -8 13 -11 -12 -23 -19 -9 -38 -32 -54 -67 -21 -45
-29 -52 -49 -50 -17 2 -31 15 -45 43 -19 36 -25 40 -65 43 -29 2 -55 12 -74
28 -33 28 -75 31 -137 9 -43 -15 -50 -15 -127 3 -36 8 -45 7 -62 -9 -29 -27
-37 -84 -18 -125 21 -43 53 -63 115 -73 29 -4 63 -18 80 -32 16 -13 37 -29 47
-35 25 -14 13 -40 -27 -62 -18 -9 -47 -31 -65 -49 -35 -33 -37 -33 -46 8 -4
14 -31 49 -62 78 l-55 52 -57 -29 c-79 -40 -181 -75 -223 -76 -33 -1 -35 1
-31 29 1 17 9 42 17 57 21 41 17 80 -16 144 -39 76 -96 128 -156 143 l-47 12
7 77 c16 214 34 277 108 389 42 65 73 100 102 117 22 14 74 57 115 95 77 74
161 134 271 194 36 19 102 60 148 90 73 49 162 87 241 102 12 2 30 7 39 9 9 3
46 8 81 11 35 3 66 7 68 8 5 5 83 1 119 -6z m-35 -344 c8 -9 14 -39 14 -72 l0
-56 57 -20 c76 -27 84 -36 62 -70 -17 -25 -16 -27 3 -47 15 -14 35 -20 72 -21
28 -1 51 -6 51 -10 0 -13 -21 -49 -41 -70 -12 -13 -16 -29 -13 -46 4 -20 -7
-51 -42 -116 -46 -86 -58 -123 -90 -268 -11 -50 -5 -111 14 -167 34 -95 128
-283 188 -375 15 -23 15 -25 -1 -25 -10 0 -47 31 -84 69 -61 64 -109 98 -149
106 -10 2 -48 15 -86 30 -39 14 -86 25 -105 24 -48 -3 -104 -34 -137 -76 -32
-40 -39 -41 -42 -6 -4 52 -59 84 -81 46 -6 -12 -5 -27 6 -48 19 -37 33 -46 56
-39 25 8 21 -13 -5 -27 -25 -13 -61 -49 -125 -126 -48 -58 -111 -98 -168 -108
-51 -10 -60 -14 -175 -91 -66 -44 -108 -65 -136 -68 -46 -6 -97 6 -118 26 -49
50 -128 295 -171 533 -20 111 -5 285 25 285 5 0 28 -24 50 -52 23 -29 47 -60
54 -68 15 -19 3 -65 -26 -96 -14 -16 -17 -30 -13 -54 18 -101 99 -134 209 -86
32 14 68 26 79 26 11 0 39 10 63 22 l44 22 25 -24 c18 -17 25 -34 25 -61 0
-41 17 -60 58 -65 16 -2 42 -9 58 -15 53 -22 78 -5 68 47 -5 28 -2 33 33 49
39 18 123 97 123 116 0 19 -45 70 -80 91 -19 12 -45 32 -58 45 -13 13 -36 24
-52 24 -17 1 -34 3 -40 4 -5 1 -19 3 -29 4 -10 0 -21 8 -24 16 -5 11 -1 12 16
6 25 -9 52 -7 82 8 11 5 37 15 58 21 35 11 41 10 62 -10 13 -12 42 -24 65 -27
23 -3 43 -11 45 -17 2 -6 6 -23 9 -38 6 -28 17 -32 138 -43 40 -3 50 -1 63 18
8 12 15 34 15 49 0 32 31 68 60 68 14 0 23 11 32 42 7 24 21 51 30 60 24 24
23 44 -3 61 -15 11 -45 14 -115 12 -68 -2 -92 1 -85 8 6 6 11 21 11 33 0 27
-28 38 -85 35 -100 -6 -120 -4 -140 15 -20 21 -5 42 32 42 26 0 53 24 53 48 0
24 -49 71 -89 84 -26 8 -56 10 -88 5 -103 -16 -133 -12 -164 23 -26 29 -28 38
-23 79 3 26 7 50 10 55 10 16 24 7 24 -16 0 -14 7 -32 16 -40 27 -28 102 14
120 67 5 15 16 18 62 17 32 -1 62 -1 69 -1 14 1 33 54 33 95 1 72 40 74 85 4
34 -52 59 -62 105 -40 34 16 54 48 65 102 15 72 55 101 86 63z m-2 -1253 c66
-26 86 -40 141 -98 68 -72 160 -138 299 -215 46 -26 85 -47 87 -47 2 0 54 -33
116 -73 156 -102 270 -148 418 -171 19 -3 46 -8 60 -11 167 -35 368 -21 592
41 48 13 91 24 96 24 13 0 8 -93 -5 -97 -6 -2 -37 3 -68 11 -95 25 -165 1
-198 -67 -16 -32 -22 -36 -45 -31 -15 4 -38 12 -52 19 -29 15 -127 17 -152 4
-10 -5 -21 -24 -26 -42 -5 -17 -12 -32 -18 -31 -5 0 -39 15 -77 33 -70 34 -95
35 -104 1 -8 -32 -25 -23 -75 40 -54 67 -81 76 -140 48 l-37 -18 -58 34 c-80
47 -122 50 -165 13 -58 -50 -45 -124 30 -173 26 -17 75 -44 109 -60 34 -16 62
-32 62 -35 1 -3 -5 -14 -13 -24 -13 -19 -17 -17 -85 28 -72 48 -98 56 -118 36
-13 -13 -48 18 -88 78 -26 41 -38 49 -85 58 -11 2 -39 20 -62 39 -49 43 -84
46 -100 12 -10 -23 -15 -24 -58 -19 -43 5 -51 3 -74 -20 -36 -36 -38 -104 -4
-170 12 -25 18 -53 16 -80 -3 -40 -4 -42 -43 -48 -37 -6 -43 -4 -87 37 -46 43
-78 53 -107 35 -8 -5 -27 -3 -48 6 -73 30 -124 -6 -127 -90 -1 -77 36 -115
128 -132 43 -9 51 -19 47 -62 -3 -37 17 -78 54 -113 23 -21 34 -24 93 -22 62
1 74 -2 161 -46 89 -45 126 -75 84 -68 -10 2 -35 6 -55 10 -144 26 -445 155
-607 260 -229 149 -521 453 -605 631 -14 29 -26 57 -26 60 0 3 14 4 31 1 50
-8 115 19 218 88 66 46 111 69 143 75 65 12 152 66 202 125 52 63 95 108 121
127 11 7 38 34 59 59 60 68 80 79 128 68 22 -5 75 -22 117 -38z m2481 -191 c0
-6 -18 -57 -41 -112 -183 -457 -552 -839 -999 -1037 -52 -23 -99 -43 -105 -45
-5 -1 -17 -5 -25 -8 -45 -18 -156 -50 -230 -67 -161 -35 -237 -44 -410 -44
-137 -1 -148 0 -202 26 -31 14 -80 44 -110 66 -60 46 -246 143 -274 144 -11 0
-35 -3 -56 -6 -30 -6 -39 -3 -51 14 -13 19 -13 25 1 50 15 25 15 30 -2 54 -22
34 -71 64 -116 72 -48 9 -79 30 -75 51 2 10 4 22 4 26 1 5 16 -1 35 -12 29
-18 38 -19 66 -9 30 10 35 9 49 -11 53 -75 54 -75 102 -62 25 7 66 10 95 7 42
-5 54 -3 68 13 15 16 16 25 7 53 -6 18 -11 55 -13 83 -1 27 -12 68 -23 90 -32
59 -28 71 22 67 31 -3 51 2 73 18 16 12 30 17 30 11 0 -5 11 -23 25 -39 23
-27 29 -30 57 -21 29 8 47 1 48 -21 0 -7 66 -77 112 -118 35 -33 36 -34 68
-17 l32 16 74 -50 c66 -45 77 -49 99 -39 22 10 30 29 26 64 -1 8 12 11 34 8
21 -2 40 3 50 12 19 19 19 24 -2 54 -27 39 -51 56 -161 112 -117 60 -141 80
-123 102 15 18 27 14 117 -41 73 -45 95 -48 115 -12 14 27 34 23 58 -10 25
-35 26 -41 6 -41 -22 0 -39 -38 -24 -56 15 -19 38 -18 61 2 16 16 21 14 73
-25 72 -54 100 -65 120 -45 18 19 18 17 1 59 -8 19 -12 35 -8 35 4 0 31 -16
60 -36 79 -53 163 -66 189 -28 12 20 11 25 -22 64 -47 57 -31 66 54 33 94 -36
143 -50 163 -46 22 5 32 37 19 62 -18 33 -13 61 13 72 18 9 43 7 102 -6 44 -9
94 -16 113 -15 43 1 100 25 107 44 7 19 -13 56 -31 56 -14 0 -35 29 -35 49 0
6 10 19 22 30 29 28 289 199 368 244 36 20 92 57 125 82 62 47 75 53 75 34z"/>
<path d="M1248 2639 c-46 -56 -142 -216 -157 -262 -17 -51 -8 -87 23 -87 14 0
27 9 33 23 6 12 21 46 34 76 13 30 52 95 86 145 35 50 63 98 63 107 0 9 -11
21 -24 27 -22 10 -28 7 -58 -29z"/>
<path d="M1052 2653 c-18 -7 -82 -140 -82 -169 0 -30 31 -48 53 -31 22 16 85
158 79 177 -8 25 -25 33 -50 23z"/>
<path d="M1384 2588 c-20 -23 -49 -67 -99 -147 -33 -53 -65 -144 -65 -182 0
-27 12 -41 38 -45 14 -3 48 43 39 52 -11 11 26 86 95 198 64 103 67 110 51
128 -21 24 -35 23 -59 -4z"/>
<path d="M856 2565 c-9 -14 -19 -38 -22 -54 -5 -23 -2 -32 15 -41 28 -14 39
-6 61 44 17 37 18 42 3 58 -22 25 -38 23 -57 -7z"/>
<path d="M1442 2418 c-5 -7 -20 -35 -32 -63 -67 -148 -72 -168 -44 -179 31
-12 49 4 83 77 53 112 64 147 50 163 -14 17 -43 18 -57 2z"/>
<path d="M1331 1951 c-25 -16 -20 -156 7 -213 25 -53 35 -62 61 -53 27 8 31
25 15 70 -20 55 -23 68 -25 131 -2 41 -7 58 -20 65 -21 11 -20 11 -38 0z"/>
<path d="M126 1917 c-26 -19 -29 -84 -5 -108 39 -39 79 18 57 82 -11 33 -30
42 -52 26z"/>
<path d="M1027 1833 c-18 -17 -5 -62 27 -97 30 -32 38 -36 55 -26 32 17 26 57
-13 96 -33 33 -55 42 -69 27z"/>
<path d="M1206 1805 c-21 -22 -20 -42 3 -55 23 -12 51 -3 51 16 0 8 1 17 3 20
1 4 -8 13 -19 21 -19 12 -24 12 -38 -2z"/>
<path d="M516 1615 c-30 -31 -19 -69 57 -182 42 -64 64 -76 88 -47 10 13 8 24
-14 67 -95 181 -102 190 -131 162z"/>
<path d="M359 1573 c0 -5 -2 -15 -4 -24 -1 -9 8 -45 20 -80 52 -146 92 -211
124 -202 31 8 31 40 0 109 -16 36 -39 91 -51 122 -11 31 -25 63 -31 70 -10 13
-56 17 -58 5z"/>
<path d="M845 1549 c-5 -13 -2 -27 8 -36 24 -24 59 -8 55 25 -4 36 -53 45 -63
11z"/>
<path d="M215 1521 c-17 -29 9 -105 76 -222 53 -93 69 -107 94 -82 21 21 13
52 -31 125 -19 32 -45 86 -57 120 -19 53 -27 63 -49 66 -14 2 -29 -2 -33 -7z"/>
<path d="M711 1501 c-20 -13 -6 -57 25 -78 49 -32 79 23 37 69 -17 20 -40 23
-62 9z"/>
<path d="M3682 1278 c-19 -19 -14 -48 10 -57 37 -14 64 29 36 57 -7 7 -17 12
-23 12 -6 0 -16 -5 -23 -12z"/>
<path d="M3587 1138 c-18 -24 -60 -81 -92 -128 -63 -93 -109 -154 -140 -186
-56 -57 -162 -179 -174 -199 -12 -19 -12 -26 -2 -39 25 -30 49 -16 132 76 46
51 95 104 108 118 43 47 220 293 250 348 9 16 8 24 -5 36 -24 25 -40 19 -77
-26z"/>
<path d="M3410 1075 c-30 -30 -60 -65 -67 -79 -12 -23 -11 -27 13 -42 l26 -18
52 54 c73 76 87 99 73 121 -19 30 -41 22 -97 -36z"/>
<path d="M3037 824 c-15 -16 -7 -53 14 -59 30 -10 58 19 43 43 -12 18 -45 28
-57 16z"/>
<path d="M3104 734 c-54 -41 -136 -96 -181 -122 -80 -44 -106 -73 -85 -94 20
-20 58 -10 145 40 90 52 261 182 270 205 6 17 -16 47 -35 47 -8 0 -59 -34
-114 -76z"/>
<path d="M1582 758 c-29 -29 3 -82 36 -61 23 14 26 38 7 57 -20 19 -27 20 -43
4z"/>
<path d="M1708 723 c-24 -6 -32 -40 -14 -59 20 -19 52 -10 59 16 6 23 -21 48
-45 43z"/>
<path d="M2826 685 c-33 -33 18 -78 59 -51 23 15 26 30 12 54 -11 17 -52 15
-71 -3z"/>
<path d="M2349 645 c-32 -17 -43 -43 -28 -61 17 -20 56 -17 79 6 23 23 25 41
8 58 -15 15 -27 15 -59 -3z"/>
<path d="M1607 638 c-23 -12 -22 -50 1 -65 27 -16 188 -82 252 -103 109 -35
200 -28 200 14 0 22 -22 34 -80 41 -62 7 -133 26 -182 49 -121 55 -176 73
-191 64z"/>
<path d="M2635 617 c-41 -22 -183 -69 -225 -73 -25 -2 -56 -6 -70 -9 -14 -3
-43 -8 -65 -11 -51 -8 -55 -10 -55 -40 0 -33 29 -43 94 -32 28 4 67 10 86 13
19 3 51 8 70 12 38 6 208 70 228 86 13 10 17 56 5 58 -33 6 -53 5 -68 -4z"/>
<path d="M3000 524 c-181 -104 -304 -158 -560 -245 -113 -38 -155 -66 -144
-94 3 -7 14 -15 25 -18 30 -8 429 138 549 200 232 122 247 132 234 168 -9 23
-54 18 -104 -11z"/>
<path d="M2610 474 c-91 -44 -158 -70 -204 -80 -128 -28 -177 -30 -333 -20
-104 7 -112 6 -122 -12 -27 -50 33 -66 249 -66 102 0 136 3 211 20 11 2 28 6
40 9 42 9 66 19 176 72 127 62 139 72 123 102 -15 30 -33 26 -140 -25z"/>
<path d="M1627 483 c-4 -3 -7 -17 -7 -30 0 -31 71 -77 162 -104 74 -23 96 -22
111 3 15 23 -6 45 -57 59 -22 6 -71 26 -109 45 -67 34 -88 40 -100 27z"/>
<path d="M1431 451 c-6 -4 -13 -18 -16 -30 -3 -19 13 -33 111 -98 132 -86 231
-122 416 -148 81 -11 115 -16 139 -20 17 -3 35 2 49 13 21 17 21 18 3 39 -11
14 -34 24 -63 27 -25 3 -54 8 -65 10 -11 2 -45 7 -75 12 -30 4 -57 8 -60 9 -3
1 -23 5 -45 10 -116 26 -150 41 -262 117 -82 55 -114 69 -132 59z"/>
</g>
</svg>
